<svg id="Layer_1" xmlns="http://www.w3.org/2000/svg" viewBox="-215 310.9 179.4 172.1"><style>.st0{fill:#252525}.st1{fill:#ea2534}</style><path class="st0" d="M-123.8 343.3c-.4 0-.8-.3-.8-.8v-13.7c0-.4.3-.8.8-.8s.8.3.8.8v13.7c0 .4-.4.8-.8.8zM-94.9 355.3c-.2 0-.4-.1-.6-.2-.3-.3-.3-.8 0-1.1l9.8-9.7c.3-.3.8-.3 1.1 0 .3.3.3.8 0 1.1l-9.8 9.7c-.1.1-.3.2-.5.2zM-70.5 383.5h-13.7c-.4 0-.8-.3-.8-.8s.3-.8.8-.8h13.7c.4 0 .8.3.8.8s-.4.8-.8.8zM-152.7 355.3c-.2 0-.4-.1-.5-.2l-9.8-9.7c-.3-.3-.3-.8 0-1.1.3-.3.8-.3 1.1 0l9.8 9.7c.3.3.3.8 0 1.1-.2.1-.4.2-.6.2zM-86.3 421.2c-.2 0-.4-.1-.6-.2l-9.7-9.7c-.3-.3-.3-.8 0-1.1.3-.3.8-.3 1.1 0l9.7 9.7c.3.3.3.8 0 1.1-.1.1-.3.2-.5.2zM-162.5 421.2c-.2 0-.4-.1-.6-.2-.3-.3-.3-.8 0-1.1l9.8-9.7c.3-.3.8-.3 1.1 0 .3.3.3.8 0 1.1l-9.8 9.7c-.1.1-.3.2-.5.2zM-163.8 383.5h-13.8c-.4 0-.8-.3-.8-.8s.3-.8.8-.8h13.8c.4 0 .8.3.8.8s-.4.8-.8.8z"/><path class="st0" d="M-123.8 347.5c-19.5 0-35.4 15.9-35.4 35.4 0 12.3 5.7 22.8 16.5 30.4 2.9 2 5.3 4 5.3 7.4v18.5c0 5.8 4.9 8.7 10.4 8.7.4 1.5 1.8 2.8 3.4 2.8 1.5 0 2.7-1 3.3-2.4v-.1c0-.1.1-.2.1-.3h-.1c5.7 0 10.2-2.9 10.2-8.7l.1-18.4c-.1-3.4 2.2-5.3 5.1-7.4 10.8-7.6 16.5-18.1 16.5-30.4 0-19.6-15.9-35.5-35.4-35.5zm11.9 73v5.5h-10.8v-35.5h-2.2V426h-10.8v-5.5c0-4.4-3-6.7-6-8.7-10.3-7.1-15.8-17.1-15.8-28.9 0-18.6 15.1-33.7 33.7-33.7s33.7 15.1 33.7 33.7c0 11.6-5.5 21.6-15.8 28.9-3 2.1-6 4.5-6 8.7z"/><g><path class="st1" d="M-103.4 390.6c-3.2 0-5.9-2.6-5.9-5.9 0-2.4-1.9-4.3-4.3-4.3s-4.3 1.9-4.3 4.3c0 3.2-2.6 5.9-5.9 5.9s-5.9-2.6-5.9-5.9c0-2.4-1.9-4.3-4.3-4.3s-4.3 1.9-4.3 4.3c0 3.2-2.6 5.9-5.9 5.9-3.2 0-5.9-2.6-5.9-5.9h1.6c0 2.4 1.9 4.3 4.3 4.3s4.3-1.9 4.3-4.3c0-3.2 2.6-5.9 5.9-5.9s5.9 2.6 5.9 5.9c0 2.4 1.9 4.3 4.3 4.3s4.3-1.9 4.3-4.3c0-3.2 2.6-5.9 5.9-5.9s5.9 2.6 5.9 5.9c0 2.4 1.9 4.3 4.3 4.3s4.3-1.9 4.3-4.3h1.6c0 3.2-2.7 5.9-5.9 5.9z"/></g></svg>