<svg id="Layer_1" xmlns="http://www.w3.org/2000/svg" viewBox="-216 310.9 177.3 172.1"><style>.st0{fill:none}.st1{fill:#ea2534}.st2{fill:#252525}</style><path class="st0" d="M-166.9 360.6c.5-.6.9-1.2 1.4-1.7-.5.5-.9 1.1-1.4 1.7zM-141.7 424.6c0-2.2 1.8-3.9 3.9-3.9h52.7c3-4.3 5.4-9 6.9-14h-59.6c-2.2 0-3.9-1.8-3.9-3.9 0-2.2 1.8-3.9 3.9-3.9h61.4c.3-2.4.5-4.8.5-7.3 0-2.2-.2-4.4-.4-6.5h-61.5c-2.2 0-3.9-1.8-3.9-3.9 0-2.2 1.8-3.9 3.9-3.9H-78c-1.5-5-3.7-9.7-6.6-14h-53.2c-2.2 0-3.9-1.8-3.9-3.9 0-2.2 1.8-3.9 3.9-3.9h46.7c-9.5-9.3-22.1-14.5-35.6-14.5-11.1 0-21.7 3.5-30.4 10 3.9.8 6.8 4.2 6.8 8.3 0 4.7-3.8 8.5-8.5 8.5-4.1 0-7.6-2.9-8.3-6.9-6.8 8.8-10.4 19.5-10.4 30.7 0 11.3 3.7 22.1 10.6 30.9.9-3.7 4.3-6.4 8.2-6.4 4.7 0 8.5 3.8 8.5 8.5 0 3.8-2.6 7.1-6.1 8.1 19.5 13.9 46.6 12.5 64.4-4.2h-45.9c-2.2 0-3.9-1.8-3.9-3.9zm-17.1-13.3c-4.7 0-8.5-3.8-8.5-8.5s3.8-8.5 8.5-8.5 8.5 3.8 8.5 8.5-3.8 8.5-8.5 8.5zm0-21.8c-4.7 0-8.5-3.8-8.5-8.5s3.8-8.5 8.5-8.5 8.5 3.8 8.5 8.5-3.8 8.5-8.5 8.5zM-165.2 424.7c-.6-.7-1.1-1.3-1.6-2 .5.7 1 1.4 1.6 2zM-164.5 357.6l.1-.1c0 .1 0 .1-.1.1z"/><path class="st1" d="M-158.8 367.7c4.7 0 8.5-3.8 8.5-8.5 0-4.1-2.9-7.5-6.8-8.3-2 1.5-3.8 3.1-5.6 4.8-.6.6-1.1 1.2-1.7 1.8l-.1.1c-.4.4-.7.8-1 1.2-.5.6-1 1.1-1.4 1.7-.1.1-.2.2-.2.3.7 4 4.2 6.9 8.3 6.9z"/><path class="st1" d="M-167.1 360.9c.1-.1.2-.2.2-.3-.1.1-.2.1-.2.3zM-165.5 358.8c.3-.4.7-.8 1-1.2-.3.4-.7.8-1 1.2z"/><circle class="st1" cx="-158.8" cy="381" r="8.5"/><path class="st2" d="M-76.1 385.1c-.3-2.7-.9-5.3-1.6-7.8h-.3c.8 2.6 1.3 5.2 1.6 7.8h.3zM-141.7 402.8c0 2.1 1.7 3.9 3.9 3.9h59.6c.8-2.5 1.4-5.2 1.8-7.8h-61.4c-2.1 0-3.9 1.7-3.9 3.9z"/><path class="st2" d="M-77.9 406.7c.8-2.5 1.4-5.1 1.8-7.8h-.2c-.4 2.7-1 5.3-1.8 7.8h.2zM-85.1 420.7h-52.7c-2.1 0-3.9 1.7-3.9 3.9 0 2.1 1.7 3.9 3.9 3.9h45.9c.4-.4.8-.7 1.2-1.1 2-2.1 3.9-4.3 5.6-6.7z"/><path class="st2" d="M-85.1 420.7c-1.7 2.4-3.6 4.6-5.6 6.7-.4.4-.8.7-1.2 1.1h.4c2.5-2.4 4.8-5 6.7-7.8h-.3zM-141.7 359.4c0 2.1 1.7 3.9 3.9 3.9h53.2c-1.8-2.7-3.9-5.2-6.2-7.5l-.3-.3h-46.7c-2.1-.1-3.9 1.6-3.9 3.9z"/><path class="st2" d="M-84.6 363.3h.3c-1.9-2.8-4.1-5.4-6.5-7.8h-.4l.3.3c2.5 2.3 4.5 4.8 6.3 7.5z"/><circle class="st1" cx="-158.8" cy="402.8" r="8.5"/><path class="st0" d="M-167 422.5l.2.2c-.1-.1-.2-.1-.2-.2zM-85.1 420.7c3-4.3 5.4-9 6.9-14h.2c.8-2.5 1.4-5.1 1.8-7.8h-.2c.3-2.4.5-4.8.5-7.3 0-2.2-.2-4.4-.4-6.5h.2c-.3-2.7-.9-5.3-1.6-7.8h-.3c-1.5-5-3.7-9.7-6.6-14h.3c-1.9-2.8-4.1-5.4-6.5-7.8h-.4c-9.5-9.3-22.1-14.5-35.6-14.5-11.1 0-21.7 3.5-30.4 10 0 0-5.1 4.2-7.3 6.6l-.1.1c-.4.4-.7.8-1 1.2-.5.6-1 1.1-1.4 1.7-.1.1-.2.2-.2.3-6.8 8.8-10.4 19.5-10.4 30.7 0 11.3 3.7 22.1 10.6 30.9.9-3.7 4.3-6.4 8.2-6.4 4.7 0 8.5 3.8 8.5 8.5 0 3.8-2.6 7.1-6.1 8.1 19.5 13.9 46.6 12.5 64.4-4.2h.4c2.5-2.4 4.8-5 6.7-7.8h-.2zM-162.9 427.2c-.2-.2-.4-.5-.7-.7l.7.7zM-156.5 432.8h.1c-2.1-1.5-4.1-3.1-5.9-5 1.8 1.8 3.7 3.5 5.8 5z"/><path class="st2" d="M-141.7 381.2c0 2.1 1.7 3.9 3.9 3.9h61.5c-.3-2.7-.9-5.3-1.6-7.8h-59.8c-2.2-.1-4 1.6-4 3.9z"/><path class="st2" d="M-58.5 458.6L-87.2 430c21.1-21.5 20.9-56.1-.4-77.4-10.5-10.4-24.4-16.1-39.1-16.1-14.7 0-28.6 5.7-39.1 16.1-10.4 10.4-16.2 24.3-16.2 39s5.7 28.6 16.2 39c20.4 20.4 53.4 21.5 75.4 2.5l28.8 28.7c.4.4 1 .7 1.6.7h.1c.6 0 1.1-.3 1.4-.7.4-.3.6-.8.7-1.4 0-.7-.3-1.3-.7-1.8zm-33.1-30.1h-.4c-17.8 16.7-45 18.1-64.4 4.2 0 0-4.1-3.2-5.9-5-.1-.1-.3-.2-.4-.4l-.2-.2c-.2-.2-.4-.5-.7-.7-.6-.6-1.1-1.2-1.7-1.8-.6-.7-1.1-1.3-1.6-2l-.2-.2c-6.8-8.8-10.6-19.6-10.6-30.9 0-11.2 3.7-21.9 10.4-30.7.1-.1.2-.2.2-.3.5-.6.9-1.2 1.4-1.7.3-.4.7-.8 1-1.2l.1-.1c2.2-2.4 7.3-6.6 7.3-6.6 8.7-6.5 19.2-10 30.4-10 13.5 0 26.1 5.1 35.6 14.5h.4c2.4 2.4 4.6 5 6.5 7.8h-.3c2.9 4.3 5.1 9 6.6 14h.2c.7 2.5 1.3 5.2 1.6 7.8h-.2c.3 2.1.4 4.3.4 6.5 0 2.5-.2 4.9-.5 7.3h.2c-.4 2.7-1 5.3-1.8 7.8h-.2c-1.6 5-3.9 9.7-6.9 14h.3c-1.8 3-4.1 5.6-6.6 7.9z"/><path class="st1" d="M-150.3 424.6c0-4.7-3.8-8.5-8.5-8.5-3.9 0-7.3 2.7-8.2 6.4l.2.2c.5.7 1.1 1.3 1.6 2 .5.6 1.1 1.2 1.7 1.8.2.2.4.5.7.7l.6.6c1.9 1.8 3.9 3.5 5.9 5 3.4-1.1 6-4.3 6-8.2z"/><path class="st1" d="M-163.6 426.5c-.6-.6-1.1-1.2-1.7-1.8.6.6 1.2 1.2 1.7 1.8zM-162.7 427.4c.1.1.3.2.4.4l-.6-.6c.1.1.1.2.2.2zM-167 422.5l.2.2c-.1-.1-.2-.1-.2-.2z"/></svg>