<svg id="Layer_1" xmlns="http://www.w3.org/2000/svg" viewBox="-199 310.9 213 172.1"><style>.st0{fill:#252525}.st1{fill:#ea2534}</style><path class="st0" d="M-120.8 451.4c7.3 1.7 18.1 2.6 32.2 2.6 14.3 0 25.2-.9 32.6-2.6 3.5-.9 6.2-1.9 8.1-3.2 1.9-1.3 2.9-3 2.9-4.8 0-.4-.1-.6-.4-.9-1.3-1.2-5.7-1.3-13.5-1.2h-4.5c-11.6 0-25.1-.1-25.2-.1h-.9c-12.1.1-12.3.1-24 .1h-4.5c-7.8 0-12.3 0-13.5 1.2-.3.3-.4.6-.4.9-.2 3.6 3.6 6.2 11.1 8zM-88.4 424.8c2.2 0 3.9-1 3.9-2.3s-1.7-2.3-3.9-2.3-3.9 1-3.9 2.3 1.7 2.3 3.9 2.3zm0-3.5c1.7 0 2.9.6 2.9 1.3 0 .6-1.3 1.3-2.9 1.3-1.7 0-2.9-.6-2.9-1.3 0-.7 1.3-1.3 2.9-1.3zM-39.5 422.1c1.3.3 3.1.3 5.7.3H-32.1c3.2 0 6.8-1.9 6.8-5.1 0-1.8-.6-5.8-6.5-5.8-3.5 0-10 2.5-10 8.1-.1 1.7 1.2 2.2 2.3 2.5zm1.9-7.8c1.9-1.3 4.3-1.7 5.7-1.7 4.5 0 5.6 2.6 5.5 4.7 0 2.5-3 4-5.7 4h-.9c-2.9 0-4.9 0-6.2-.3s-1.6-.8-1.6-1.6c0-2.5 1.8-4.2 3.2-5.1zM-145.3 422.3H-143.6c2.5 0 4.4-.1 5.7-.3 1-.3 2.3-.8 2.3-2.6 0-5.7-6.5-8.1-10-8.1-5.8 0-6.5 4-6.5 5.8 0 3.3 3.5 5.2 6.8 5.2zm-.3-9.9c1.3 0 3.6.5 5.7 1.8 1.4.9 3.2 2.5 3.2 5.2 0 .8-.3 1.3-1.6 1.6s-3.4.3-6.2.3h-.9c-2.7 0-5.7-1.7-5.7-4 .1-2.3 1-4.9 5.5-4.9zM-131.3 423c1.9 0 3.5-1.6 3.5-3.5s-1.6-3.5-3.5-3.5-3.5 1.6-3.5 3.5 1.6 3.5 3.5 3.5zm0-6c1.4 0 2.5 1.2 2.5 2.5s-1 2.5-2.5 2.5c-1.3 0-2.5-1-2.5-2.5.1-1.3 1.1-2.5 2.5-2.5zM-46.2 423c1.9 0 3.5-1.6 3.5-3.5s-1.6-3.5-3.5-3.5-3.5 1.6-3.5 3.5 1.6 3.5 3.5 3.5zm0-6c1.4 0 2.5 1.2 2.5 2.5s-1 2.5-2.5 2.5c-1.3 0-2.5-1-2.5-2.5.1-1.3 1.1-2.5 2.5-2.5z"/><path class="st0" d="M-25.3 405c-2.6-3.8-6.3-6.5-11-8.2-.1-.1-.2-.1-.2-.2H-36.8c-.5-.2-.9-.3-1.4-.4h-2.9c.7-1 1.5-2.7 2.5-5.5 1.3-3.5 2.9-8.3 4.5-14.3 2.9-10.1 5.2-20.3 5.2-20.4l.1-.5-.5-.1s-5.3-1.6-10.5-4c-6.8-3.1-10.3-6.4-10.3-9.2v-.4l-.4-.1c-.1 0-14.7-3.5-38.3-3.5s-38.2 3.5-38.3 3.5l-.4.1v.4c0 2.9-3.5 6.1-10.3 9.2-5.2 2.3-10.5 3.9-10.5 3.9l-.5.1.1.5c0 .1 2.3 10.3 5.2 20.4 1.7 6 3.2 10.8 4.5 14.3 1.1 2.8 1.9 4.5 2.6 5.6h-3c-5.7 1.6-10 4.6-12.8 8.8-3.5 4.9-5.3 11.9-5.3 20.6 0 3.1 1 6.6 1.7 9.4l.1.4c.1.5.2.9.3 1.4.4 1.4.7 2.6.7 3.4 0 2.4.7 4.4 2.1 6.1-.1.8-.2 2.4-.2 5.6 0 .5 0 1.9.8 3.3.9 1.7 2.8 3.1 5.5 4.1 11.4 4.2 38.3 6.5 57.7 6.5 19.3 0 46-2.3 57.7-6.5 2.7-1.1 4.6-2.5 5.5-4.1.8-1.5.8-2.8.8-3.3 0-2.4-.1-4.6-.2-5.6 1.4-1.6 2-3.6 2-6 0-.8.3-2 .7-3.4.1-.4.2-.9.3-1.3l.1-.4c.8-2.8 1.7-6.3 1.7-9.4.1-9-1.6-15.9-5.1-20.8zm-8.4 5.8c6.4 0 9.6 2.9 9.6 5.7 0 2.1-.5 3.8-1.7 4.9-2.5 2.5-7.3 2.5-11.6 2.5h-1.3c-9.2 0-11.3-.9-11.3-4.7.1-2.5 7-8.4 16.3-8.4zm-93.8 8.4c0 3.8-2.2 4.7-11.3 4.7h-1.3c-4.3 0-9.1 0-11.6-2.5-1.2-1.2-1.7-2.7-1.7-4.9 0-2.9 3.2-5.7 9.6-5.7 9.5 0 16.3 5.9 16.3 8.4zm95.6 38.4c-11.3 4.1-37.7 6.3-56.8 6.3-19.2 0-45.7-2.2-57.1-6.3-5.2-1.9-5.2-4.6-5.2-5.6 0-1.5 0-3 .1-4.1 2.2 1.6 5.5 2.9 9.9 3.8l1.2.3c13.1 2.9 31.1 6.9 50.4 7h.7c19.3 0 37.1-3.9 50.2-6.8l1.9-.4c4.5-1 7.8-2.3 10-3.9 0 1.1.1 2.6.1 4.1-.1 1-.1 3.7-5.4 5.6zm8.4-22.5l-.2 1c-.4 1.7-.8 3.2-.8 4.2 0 2.2-.6 3.9-1.9 5.2h-.3v.2c-.1.1-.3.2-.4.3-1.9 1.6-5 2.9-9.7 3.9l-1.4.3-.8.2c-13 2.8-30.7 6.7-49.6 6.7h-.4v.1c-19.5 0-38.1-4.2-50.5-7l-1.2-.3c-4.6-1-7.7-2.3-9.7-3.9-.1-.1-.2-.2-.3-.2v-.3h-.4c-1.3-1.4-2-3.1-2-5.2 0-1-.4-2.5-.8-4.2l-.2-1c-.8-3-1.7-6.4-1.7-9.4 0-13.5 3.9-21.9 12.2-26.1-2.8 4.1-3.9 10.1-3.9 10.5-4.5 1-6.9 3.7-6.9 6.4 0 2.5.6 4.4 2.1 5.7 2.5 2.5 6.8 2.7 10.9 2.7h2.6c8.4 0 12.3-.5 12.3-5.7 0-.4-.1-.8-.3-1.3h76c-.2.5-.3.9-.3 1.3 0 5.2 4 5.7 12.3 5.7h2.7c4.2 0 8.4-.1 10.8-2.7 1.4-1.3 2.1-3.2 2.1-5.7 0-2.7-2.4-5.5-7-6.4l.4-.1c-.1-.3-1-5.8-3.4-9.9 7.6 4.4 11.4 12.8 11.4 25.6 0 3-.9 6.3-1.7 9.4z"/><path class="st1" d="M-37.5 385.5c-.1-.6-.8-1.2-1.4-1l-.9.1-5.1-3.4c-.3-.3-.6-.3-1-.1s-.6.4-.8.8l-1.7 5.1-.6-10.4c0-.6-.5-1-1-1.2-.5-.1-1.2.3-1.3.8l-5.7 17.9-1.7-30.7c0-.6-.5-1-1-1.2-.5 0-1 .3-1.3.8l-8.6 20.5h-19.8-.1-1.3l-5.2-2.6c-.3-.1-.6-.1-1 0-.4.3-.5.5-.6.9l-.9 4.8-1.4-10.3c0-.5-.5-1-1-1s-1 .3-1.3.8l-7 18.3-.4-30.9c0-.5-.5-1-1-1.2-.5 0-1 .3-1.3.8l-8.6 20.5h-19.8c-.6 0-1.2.5-1.2 1.2 0 .6.5 1.2 1.2 1.2h20.5c.5 0 1-.4 1.2-.8l6.5-15.9.4 31.3c0 .5.5 1 1 1.2h.3c.4 0 .9-.3 1.2-.8l7.7-19.9 1.8 13c.1.5.5 1 1.2 1 .5 0 1-.5 1.2-1l1.9-10.4 4 1.9c.1.1.4.1.5.1h22.1c.5 0 1-.4 1.2-.8l6.8-16.4 1.8 32c0 .6.5 1 1.2 1.2.5 0 1-.3 1.2-.5l5.7-18.2.6 10c0 .6.5 1 1 1.2.5.1 1.2-.3 1.3-.8l3.1-9.2 4.2 2.7c.3.1.6.1.9.1l1.4-.3c.6.1 1.1-.5.9-1.2z"/></svg>