<svg id="Layer_1" xmlns="http://www.w3.org/2000/svg" viewBox="-203 310.9 203.1 172.1"><style>.st0{fill:#252525}.st1{fill:#FFF}.st2{fill:#ea2534}</style><path class="st0" d="M-62.5 441.8h-70.9c-2.3 0-4.2-1.9-4.2-4.2v-93.2c0-2.3 1.9-4.2 4.2-4.2h70.9c2.3 0 4.2 1.9 4.2 4.2v93.2c.1 2.3-1.8 4.2-4.2 4.2z"/><path class="st1" d="M-55.5 433.9h-70.9c-2.3 0-4.2-1.9-4.2-4.2v-93.2c0-2.3 1.9-4.2 4.2-4.2h70.9c2.3 0 4.2 1.9 4.2 4.2v93.2c0 2.3-1.9 4.2-4.2 4.2z"/><path class="st0" d="M-55.5 434.7h-70.9c-2.7 0-5-2.2-5-5v-93.2c0-2.7 2.2-5 5-5h70.9c2.7 0 5 2.2 5 5v93.2c0 2.7-2.3 5-5 5zm-70.9-101.6c-1.9 0-3.4 1.6-3.4 3.4v93.2c0 1.9 1.6 3.4 3.4 3.4h70.9c1.9 0 3.4-1.6 3.4-3.4v-93.2c0-1.9-1.6-3.4-3.4-3.4h-70.9z"/><path class="st0" d="M-58 344.7h-64.4c-.4 0-.8-.3-.8-.8s.3-.8.8-.8H-58c.4 0 .8.3.8.8s-.4.8-.8.8zM-58 351.1h-64.4c-.4 0-.8-.3-.8-.8s.3-.8.8-.8H-58c.4 0 .8.3.8.8s-.4.8-.8.8zM-58 357.4h-64.4c-.4 0-.8-.3-.8-.8s.3-.8.8-.8H-58c.4 0 .8.3.8.8s-.4.8-.8.8zM-58 363.8h-64.4c-.4 0-.8-.3-.8-.8s.3-.8.8-.8H-58c.4 0 .8.3.8.8s-.4.8-.8.8zM-58 370.2h-64.4c-.4 0-.8-.3-.8-.8s.3-.8.8-.8H-58c.4 0 .8.3.8.8s-.4.8-.8.8zM-58 376.5h-64.4c-.4 0-.8-.3-.8-.8s.3-.8.8-.8H-58c.4 0 .8.3.8.8s-.4.8-.8.8zM-58 382.9h-64.4c-.4 0-.8-.3-.8-.8s.3-.8.8-.8H-58c.4 0 .8.3.8.8s-.4.8-.8.8zM-58 389.2h-64.4c-.4 0-.8-.3-.8-.8s.3-.8.8-.8H-58c.4 0 .8.3.8.8s-.4.8-.8.8zM-58 395.6h-64.4c-.4 0-.8-.3-.8-.8s.3-.8.8-.8H-58c.4 0 .8.3.8.8s-.4.8-.8.8zM-58 402h-64.4c-.4 0-.8-.3-.8-.8s.3-.8.8-.8H-58c.4 0 .8.3.8.8s-.4.8-.8.8zM-89 408.3h-33.4c-.4 0-.8-.3-.8-.8s.3-.8.8-.8H-89c.4 0 .8.3.8.8s-.4.8-.8.8zM-89 414.7h-33.4c-.4 0-.8-.3-.8-.8s.3-.8.8-.8H-89c.4 0 .8.3.8.8s-.4.8-.8.8z"/><circle class="st2" cx="-71.5" cy="416" r="10.3"/><g><path class="st1" d="M-66.5 411c-.2-.2-.5-.2-.7 0l-6.6 6.6c-.2.2-.5.2-.7 0l-1.6-1.6c-.2-.2-.5-.2-.7 0l-1 1c-.2.2-.2.5 0 .7l3.4 3.4c.2.2.5.2.7 0l8.3-8.3c.2-.2.2-.5 0-.7l-1.1-1.1z"/></g></svg>