<svg id="Layer_1" xmlns="http://www.w3.org/2000/svg" viewBox="-184 310.4 241.1 173.6"><style>.st0{fill:#252525}.st1{fill:#FFF}.st2{fill:#010101}.st3{fill:#ea2534}</style><path class="st0" d="M-82.7 475.1c42.4-24.7-35.6-14.8-19.7-41.8h-19.7c-1.7 0-3.3 1.1-3.9 2.7-7.6 22.2 60.3 17.8 43.3 39.1zM16.2 475.1c42.4-24.7-35.6-14.8-19.7-41.8h-19.7c-1.7 0-3.3 1.1-3.9 2.7-7.7 22.2 60.2 17.8 43.3 39.1z"/><path class="st0" d="M-1.1 408.8c1.7 12.7.1 22.6.1 22.6 0 1.5-1.1 2.4-2.5 2.5H-21c-1.4.1-2.7-.9-2.9-2.3l-.8-4.9M-122.6 408.6c-1.7 12.8-.1 22.7-.1 22.7 0 1.5 1.1 2.4 2.5 2.5h17.5c1.4.1 2.7-.9 2.9-2.3l.8-4.9"/><path class="st1" d="M-.5 398.4c0-11-4.5-12-4.5-12-7.5-10.3-16.2-9.6-16.2-9.6l-40.7.2-40.7-.2s-8.6-.8-16.2 9.6c0 0-4.5 1-4.5 12 0 2.9-1.4 22.5 13.6 28.3h95.5C.9 420.8-.5 401.2-.5 398.4z"/><path class="st0" d="M-14.1 427.2h-95.8c-6.6-2.5-14.3-9.5-13.9-28.1v-.7c0-10.1 3.8-12.1 4.7-12.4 7.7-10.4 16.2-9.7 16.6-9.7l40.7.2 40.7-.2c.3 0 9-.6 16.5 9.7.9.3 4.7 2.3 4.7 12.4v.7c.3 18.5-7.5 25.5-14.2 28.1zm-95.5-1h95.3C-8 423.7-.6 417-1 399.1v-.7c0-10.4-4.1-11.5-4.1-11.5h-.2l-.1-.1c-7.3-10-15.7-9.4-15.8-9.4l-40.7.2-40.7-.2c-.1 0-8.5-.6-15.8 9.4l-.1.2h-.2s-4.1 1.1-4.1 11.5v.7c-.4 17.8 6.9 24.5 13.2 27z"/><path class="st2" d="M-61.8 384.1c-1.8 0-3.1-.9-3.1-2.1s1.3-2.1 3.1-2.1 3.1.9 3.1 2.1c0 1.2-1.4 2.1-3.1 2.1zm0-3.2c-1.3 0-2.1.6-2.1 1.1s.8 1.1 2.1 1.1c1.2 0 2.1-.6 2.1-1.1 0-.5-.8-1.1-2.1-1.1z"/><path class="st0" d="M-29.2 396.9h-66.2v-12.3h66.2v12.3zm-65.2-1h64.2v-10.3h-64.2v10.3z"/><path class="st1" d="M-109.9 396.5H-94c2.9 0 5.2-2.3 5.2-5.2 0-4.7-2.7-6.4-6-6.4l-10.3.4c-4.1 0-8.5 3.4-8.5 7.5-.1 2 1.6 3.7 3.7 3.7z"/><path class="st0" d="M-94 397h-15.9c-1.2 0-2.3-.5-3.1-1.3-.8-.8-1.2-1.8-1.1-2.9 0-4.5 4.8-8 9-8l10.3-.4c4.1 0 6.5 2.5 6.5 6.9 0 3.2-2.5 5.7-5.7 5.7zm-.8-11.6l-10.3.4c-3.7 0-8 3.1-8 7 0 .8.3 1.6.8 2.2.6.6 1.5 1 2.4 1H-94c2.6 0 4.7-2.1 4.7-4.7 0-4.9-3-5.9-5.5-5.9z"/><circle class="st3" cx="-94.9" cy="390.6" r="4.5"/><path class="st0" d="M-94.9 395.6c-2.8 0-5-2.2-5-5s2.2-5 5-5 5 2.2 5 5-2.2 5-5 5zm0-9c-2.2 0-4 1.8-4 4s1.8 4 4 4 4-1.8 4-4-1.8-4-4-4z"/><circle class="st3" cx="-107.1" cy="391.2" r="3.5"/><path class="st0" d="M-107.1 395.2c-2.2 0-4-1.8-4-4s1.8-4 4-4 4 1.8 4 4-1.8 4-4 4zm0-7c-1.7 0-3 1.3-3 3s1.3 3 3 3 3-1.3 3-3-1.3-3-3-3z"/><path class="st0" d="M-107.1 387.2h8.7v1h-8.7zM-105.8 394h8.7v1h-8.7zM-116.7 384.3l-.2-.1c-1 .2-2.4-.1-3.6-.7-1.4-.7-2.4-1.6-2.6-2.7-.2-1.2.2-2.5 1.2-3.4 1.9-1.8 5.2-2.2 9.1-1.3.9.2 1.4 2 1.7 3l.1.4-.3.2c-1.5.9-3.6 2.8-4.5 3.8l-.9.8zm.1-7.6c-2.7 0-4.1 1-4.6 1.5-.8.7-1.1 1.6-.9 2.5.1.7.9 1.4 2.1 2 1.1.5 2.2.7 3 .6.9-1.1 3.6-3.3 4.8-4.2-.3-.9-.7-1.8-.9-1.9-1.3-.4-2.5-.5-3.5-.5z"/><path class="st1" d="M-13.8 396.5h-15.9c-2.9 0-5.2-2.3-5.2-5.2 0-4.7 2.7-6.4 6-6.4l10.3.4c4.1 0 8.5 3.4 8.5 7.5.1 2-1.6 3.7-3.7 3.7z"/><path class="st0" d="M-13.8 397h-15.9c-3.2 0-5.7-2.5-5.7-5.7 0-4.4 2.4-6.9 6.5-6.9l10.3.4c4.1 0 9 3.5 9 8 .1 1-.3 2.1-1.1 2.9-.8.8-1.9 1.3-3.1 1.3zm-15.1-11.6c-2.5 0-5.5 1-5.5 5.9 0 2.6 2.1 4.7 4.7 4.7h15.9c.9 0 1.8-.4 2.4-1 .6-.6.9-1.4.8-2.2 0-4-4.3-7-8-7l-10.3-.4z"/><path class="st3" d="M-25.5 387.7c-.8-.9-2-1.5-3.3-1.5-2.5 0-4.5 2-4.5 4.5s2 4.5 4.5 4.5c.6 0 1.2-.1 1.7-.3 1.6-.7 2.7-2.3 2.7-4.1.1-1.3-.4-2.3-1.1-3.1z"/><path class="st0" d="M-28.8 395.7c-2.8 0-5-2.2-5-5s2.2-5 5-5c1.4 0 2.7.6 3.7 1.7.9 1.1 1.3 2.2 1.2 3.5 0 1.9-1.2 3.7-3 4.5-.6.2-1.2.3-1.9.3zm0-9c-2.2 0-4 1.8-4 4s1.8 4 4 4c.6 0 1.1-.1 1.5-.3 1.4-.6 2.4-2.1 2.4-3.6.1-1-.2-1.9-1-2.8-.7-.8-1.8-1.3-2.9-1.3z"/><circle class="st3" cx="-16.6" cy="391.2" r="3.5"/><path class="st0" d="M-16.6 395.2c-2.2 0-4-1.8-4-4s1.8-4 4-4 4 1.8 4 4-1.8 4-4 4zm0-7c-1.7 0-3 1.3-3 3s1.3 3 3 3 3-1.3 3-3-1.3-3-3-3z"/><path class="st0" d="M-26.5 394h8.7v1h-8.7zM-25.5 387.2h8.9v1h-8.9zM-7 384.3l-1.4-1.4c-1.1-1-2.6-2.4-3.9-3.1l-.3-.2.1-.4c.3-1 .8-2.7 1.6-3 4-1 7.3-.5 9.1 1.3 1 1 1.4 2.2 1.2 3.4-.5 2.2-4.1 3.7-6.2 3.3l-.2.1zm.3-1.1c1.8.3 4.8-1 5.1-2.5.2-.9-.2-1.8-.9-2.5-.8-.7-3.1-2.3-8.2-1-.2.1-.6 1-.8 1.9 1.3.8 4 3.1 4.8 4.1zM-109.6 426.1h95.5v1h-95.5z"/><path class="st0" d="M-29.9 420.2h-68.9c-1.3 0-2.5.6-3.4 1.6l-1.7 2.2c-.8 1-.1 2.6 1.3 2.6h76.7c1.4 0 2.1-1.6 1.2-2.6l-1.9-2.2c-.8-1-2-1.6-3.3-1.6z"/><path class="st0" d="M-19.8 424l-1.9-2.2c-.1-.2-.3-.3-.5-.5 0-.1-.1-.1-.2-.2l-1.9-2.2c-.8-1-2-1.5-3.3-1.5h-68.8c-1.3 0-2.5.6-3.4 1.6l-1.7 2.2c-.8 1-.1 2.6 1.3 2.6h1.5l-.2.3c-.8 1-.1 2.6 1.3 2.6H-21c1.3-.1 2.1-1.7 1.2-2.7zM-36.3 363.5h-.3c-4.5 0-8.5 2.9-9.8 7.2l-1.9 6h23.6l-1.8-6c-1.2-4.2-5.2-7.2-9.8-7.2z"/><path class="st0" d="M-24 377.2h-25l2.1-6.7c1.4-4.5 5.5-7.5 10.3-7.5h.3c4.8 0 9 3.1 10.3 7.6l2 6.6zm-23.6-1h22.2l-1.6-5.4c-1.2-4-5-6.8-9.3-6.8h-.3c-4.3 0-8.1 2.8-9.3 6.8l-1.7 5.4zM-85.8 363.5h-.3c-4.5 0-8.5 2.9-9.8 7.2l-1.9 6h23.6l-1.8-6c-1.3-4.2-5.3-7.2-9.8-7.2z"/><path class="st0" d="M-73.5 377.2h-25l2.1-6.7c1.4-4.5 5.5-7.5 10.3-7.5h.3c4.7 0 8.9 3.1 10.3 7.6l2 6.6zm-23.6-1h22.2l-1.6-5.4c-1.2-4-5.1-6.8-9.3-6.8h-.3c-4.3 0-8.1 2.8-9.3 6.8l-1.7 5.4z"/><g><path class="st0" d="M-5.2 404.3h-113.4c-2.9 0-5.1-2.3-5.1-5.3h1c0 2.5 1.8 4.3 4.1 4.3H-5.2c2.4 0 4.2-1.8 4.2-4.3h1c0 3-2.2 5.3-5.2 5.3z"/></g><g><path class="st0" d="M-106.7 426.6h99.2l-.4 7.3h-99.2z"/></g><g><circle class="st1" cx="-28.8" cy="390.6" r="2.8"/></g><g><circle class="st1" cx="-94.9" cy="390.6" r="2.8"/></g><g><circle class="st3" cx="-61.8" cy="399.9" r="5.1"/></g><g><path class="st3" d="M-53.3 351.3c0-4.7-3.8-8.5-8.5-8.5s-8.5 3.8-8.5 8.5c0 .5.1 1.1.2 1.6l3.3 33.7c0 2.8 2.3 5.1 5.1 5.1s5.1-2.3 5.1-5.1l3.3-33.7c-.1-.5 0-1 0-1.6z"/></g><g><path class="st0" d="M-5.6 386.4c.5 1 1.3 6.6 1.6 8.1.3 1.8-1.3-7.4-.2-7.2 0 0-1.5-1.3-1.4-.9z"/></g><g><path class="st0" d="M-118.1 386.4c-.5 1-1.3 6.6-1.6 8.1-.3 1.8 1.3-7.4.2-7.2 0 0 1.6-1.3 1.4-.9z"/></g></svg>