<svg id="Layer_1" xmlns="http://www.w3.org/2000/svg" viewBox="0 0 229.5 173.6"><style>.st0{fill:#252525}.st1,.st2{fill:#FFF}.st2{stroke:#010101;stroke-width:.3402}.st2,.st3{stroke-miterlimit:10}.st3{stroke:#252525;stroke-width:.5669}.st3,.st4{fill:#161212}.st5{fill:none;stroke:#161212;stroke-width:8.5039;stroke-miterlimit:10}.st6{fill:#020202}.st7{fill:#ea2534}.st8{fill:none;stroke-width:1.5591;stroke-linecap:round;stroke-miterlimit:10}.st8,.st9{stroke:#252525}.st9{fill:#020202}.st9,.st10{stroke-miterlimit:10}.st10{fill:none;stroke:#ea2534;stroke-width:1.5591}.st11{clip-path:url(#SVGID_3_);fill:#ea2534}.st12{clip-path:url(#SVGID_5_);fill:#ea2534}.st13{clip-path:url(#SVGID_7_);fill:#252525}.st14{clip-path:url(#SVGID_9_);fill:#252525}.st15{clip-path:url(#SVGID_11_);fill:#252525}.st16{clip-path:url(#SVGID_13_);fill:#252525}.st17{clip-path:url(#SVGID_15_);fill:#ea2534}.st18{clip-path:url(#SVGID_17_);fill:#ea2534}.st19{clip-path:url(#SVGID_19_);fill:#ea2534}.st20{fill:none;stroke:#252525;stroke-miterlimit:10}.st21{stroke-width:1.5591;stroke-linecap:round}.st21,.st22{fill:#FFF;stroke:#252525;stroke-miterlimit:10}.st23{fill:none;stroke:#010101}.st23,.st24{stroke-miterlimit:10}.st24{fill:#ea2534;stroke:#252525}.st25{fill:#252525}.st25,.st26{stroke:#252525;stroke-miterlimit:10}.st26{fill:none;stroke-width:1.0006}.st27{fill:#cdcccc}.st28{fill:#010101}.st29{fill:none}.st30{fill:#eb2133}.st31{fill:#FFF;stroke:#252525;stroke-width:1.0006;stroke-miterlimit:10}.st32{fill:none;stroke:#010101}.st32,.st33{stroke-width:1.0006;stroke-miterlimit:10}.st33{fill:#ea2534;stroke:#252525}</style><path class="st1" d="M28.5 74.7h21v36.8h-21zM54.8 74.7h21v36.8h-21zM81.1 74.7h21v36.8h-21zM107.4 74.7h21v36.8h-21zM133.7 74.7h21v36.8h-21zM160 74.7h21v36.8h-21z"/><path class="st27" d="M28.5 74.7H181v6.6H28.5z"/><path class="st28" d="M31.4 98.2c0-.3.4-.6.7-.8 6.9-4.8 8.7-9.3 9.4-11.3.4-1.2.7-2.1.7-3.1 0-2.2-1.5-3.5-3.8-3.5-2 0-4 1-5 2.6-.1.1-.1.1-.2.1s-.2 0-.3-.1l-1.2-1.5c-.1-.1-.1-.1-.1-.2s0-.2.1-.2c1.8-2 4.2-3.4 7.4-3.4 3.8 0 6.4 2.1 6.4 5.8 0 1.3-.3 2.4-.7 4-.5 2.3-3.8 7.4-6.6 9.7-.7.5-1.3.9-1.3 1.1 0 .1.1.2.2.2h.1l1.3-.2h7.9c.2 0 .3.1.3.3v2.1c0 .2-.1.3-.3.3H31.9c-.3 0-.5-.1-.5-.3v-1.6zM59.1 97.7c.1-.2.2-.3.4-.2 1.1.5 2.5.8 4.2.8 2.4 0 4.2-1 5-2.6.3-.6.4-1.1.4-1.8 0-3.1-2.3-4.2-5.5-4.2h-2.3c-.2 0-.3-.1-.3-.3v-.7c0-.2 0-.3.1-.4l4.7-6.4.3-.3 1-.8c.3-.2.2-.4-.2-.4l-1.7.2h-6.5c-.2 0-.3-.1-.3-.3v-2.1c0-.2.1-.3.3-.3H71c.2 0 .3.1.3.3v.7c0 .2 0 .3-.1.4l-5.2 7-.3.3-.9.7c-.1.1-.2.1-.2.2h.4l.7-.1h.4c2.9.1 4.9 1.6 5.8 3.7.3.8.5 1.7.5 2.6 0 2.6-1.1 4.3-2.5 5.5-1.5 1.2-3.5 1.9-6.1 1.9-1.9 0-3.6-.3-4.9-.8-.2-.1-.3-.2-.2-.4l.4-2.2zM94.5 85.8c.1-.1.1-.2.2-.3l1-1c.2-.2.1-.4-.2-.4l-1.3.2h-9.8c-.2 0-.3-.1-.3-.3v-2.2c0-.2.1-.3.3-.3h14.4c.2 0 .3.1.3.3v.4c0 .1 0 .3-.1.4L89 104c-.1.2-.2.2-.4.2h-2.4c-.3 0-.4-.2-.2-.4l8.5-18zM110.8 110.4c.1-.2.2-.3.4-.2 1.1.5 2.5.8 4.2.8 2.4 0 4.2-1 5-2.6.3-.6.4-1.1.4-1.8 0-3.1-2.3-4.2-5.5-4.2H113c-.2 0-.3-.1-.3-.3v-.7c0-.2 0-.3.1-.4l4.7-6.4.3-.3 1-.8c.3-.2.2-.4-.2-.4l-1.7.2h-6.5c-.2 0-.3-.1-.3-.3v-2.1c0-.2.1-.3.3-.3h12.2c.2 0 .3.1.3.3v.7c0 .2 0 .3-.1.4l-5.2 7-.3.3-.9.7c-.1.1-.2.1-.2.2h.4l.7-.1h.4c2.9.1 4.9 1.6 5.8 3.7.3.8.5 1.7.5 2.6 0 2.6-1.1 4.3-2.5 5.5-1.5 1.2-3.5 1.9-6.1 1.9-1.9 0-3.6-.3-4.9-.8-.2-.1-.3-.2-.2-.4l.5-2.2zM139.4 104.9c-.1-.2 0-.3.3-.4 3.9-.6 6.5-2.7 8-5.6.4-.8.7-1.6.9-2.5.1-.3-.2-.5-.4-.2-1 .8-2.3 1.3-4.3 1.3-3.3 0-5.8-1.4-6.9-3.8-.4-.8-.6-1.8-.6-2.9 0-3.5 1.8-5.8 4.4-6.8 1-.4 2.1-.6 3.4-.6 3.9 0 6.2 2 7.3 4.8.4 1 .6 2.2.6 3.4 0 4.8-1.3 8.6-3.5 11.1-1.9 2.2-4.7 3.8-8.3 4.2h-.1c-.2 0-.3-.1-.3-.3l-.5-1.7zm9.6-13.1c0-2.5-1-4.4-2.7-5.3-.6-.3-1.4-.5-2.2-.5-2.9 0-4.5 1.7-4.5 4.6s2 4.4 4.8 4.4c2 0 3.7-.7 4.5-1.7.1-.1.1-.2.2-.4v-1.1zM164.8 101.2c.1-.2.2-.3.4-.2 1.1.5 2.5.8 4.2.8 2.4 0 4.2-1 5-2.6.3-.6.4-1.1.4-1.8 0-3.1-2.3-4.2-5.5-4.2H167c-.2 0-.3-.1-.3-.3v-.7c0-.2 0-.3.1-.4l4.7-6.4.3-.3 1-.8c.3-.2.2-.4-.2-.4l-1.6.1h-6.5c-.2 0-.3-.1-.3-.3v-2.1c0-.2.1-.3.3-.3h12.2c.2 0 .3.1.3.3v.7c0 .2 0 .3-.1.4l-5.2 7-.3.3-.9.7c-.1.1-.2.1-.2.2h.4l.7-.1h.4c2.9.1 4.9 1.6 5.8 3.7.3.8.5 1.7.5 2.6 0 2.6-1.1 4.3-2.5 5.5-1.5 1.2-3.5 1.9-6.1 1.9-1.9 0-3.6-.3-4.9-.8-.2-.1-.3-.2-.2-.4l.4-2.1z"/><path class="st29" d="M114.2 73.9l-1.4 1c-.1.1-.1.1-.1.2s0 .1.1.1h.1l2-.2h5.2c.4 0 .4-.1.4-.5v-2.1h-5.3l-1 1.5z"/><path class="st28" d="M120.5 72.3v2.1c0 .4-.1.5-.4.5h-5.2l-2 .2h-.1c-.1 0-.1 0-.1-.1s0-.1.1-.2l1.4-1 1-1.6h-3.6l-1.9 3c-.2.3-.3.5-.3.8v1c0 .3.1.5.5.5h10.2c.4 0 .4.1.4.5v6c0 .2.2.4.4.4h2.2c.3 0 .4-.2.4-.4v-6c0-.4.2-.5.6-.5h2.7c.3 0 .4-.2.4-.5v-1.6c0-.3-.2-.5-.5-.5h-2.6c-.5 0-.6-.1-.6-.6v-2.1h-3z"/><path class="st29" d="M38.2 114.1l.2-1v-.1c0-.1 0-.2-.1-.2s-.1 0-.2.1l-.8.9-.3.3-1.1.8h2.3v-.3-.5z"/><path class="st28" d="M37 114c.1-.1.2-.1.3-.3l.8-.9c.1-.1.2-.1.2-.1.1 0 .1.1.1.2v.1l-.2 1v.7h3v-5.5c0-.2-.1-.3-.3-.3H40c-.2 0-.3 0-.4.1l-7.4 5.3c-.1.1-.1.2-.1.3v.1h3.8l1.1-.7zM71.7 112.8c0-3.7-2.6-5.8-6.4-5.8-3.2 0-5.6 1.5-7.4 3.4-.1.1-.1.2-.1.2s0 .1.1.2l1.2 1.5c.1.1.2.1.3.1.1 0 .1 0 .2-.1 1.1-1.6 3.1-2.6 5-2.6 2.4 0 3.8 1.3 3.8 3.5 0 .5-.1 1-.2 1.5h3.2c.2-.6.3-1.2.3-1.9zM90.1 114.1c1.5-1.6 3.5-2.9 6-3.3.2-.1.3-.2.3-.4l-.5-1.9c0-.2-.1-.3-.3-.3h-.1c-3.6.5-6.4 2.4-8.3 4.8-.4.5-.8 1-1.1 1.6h3.3c.3-.1.5-.3.7-.5z"/><path class="st0" d="M182 71.4H27.5c-1.9 0-3.4 1.5-3.4 3.4v36.5c0 1.9 1.5 3.4 3.4 3.4H182c1.9 0 3.4-1.5 3.4-3.4V74.8c.1-1.9-1.5-3.4-3.4-3.4zM49.6 111.5h-21V74.7h21v36.8zm26.3 0h-21V74.7h21v36.8zm26.2 0h-21V74.7h21v36.8zm26.3 0h-21V74.7h21v36.8zm26.3 0h-21V74.7h21v36.8zm26.3 0h-21V74.7h21v36.8z"/><g><path class="st30" d="M206.2 81.7l-6.7-6.7a3.5 3.5 0 0 0-5 0L150 119.5a3.5 3.5 0 0 1-5 0l-4.7-4.7h-17.5l-.5.5a3.5 3.5 0 0 0 0 5L145 143a3.5 3.5 0 0 0 5 0l56.3-56.3c1.3-1.4 1.3-3.6-.1-5z"/></g></svg>