<svg id="Layer_1" xmlns="http://www.w3.org/2000/svg" viewBox="-151 310.4 308.9 173.6"><style>.st0{fill:none}.st1{fill:#252525}.st2{fill:#FFF}.st3{fill:#010101}.st4{fill:#ea2534}</style><path class="st0" d="M-120.1 461.4H-151"/><path class="st1" d="M-123.1 368.3h10v.6h-10zM-123.1 393.3h10v.6h-10zM-123.1 418.3h10v.6h-10zM-123.1 443.3h10v.6h-10zM-108 448.5h.6v10h-.6zM-83 448.5h.6v10h-.6zM-58 448.5h.6v10h-.6zM-33 448.5h.6v10h-.6zM-7.7 448.5h.6v10h-.6zM17.3 448.5h.6v10h-.6zM42.3 448.5h.6v10h-.6zM67.6 448.5h.6v10h-.6zM92.6 448.5h.6v10h-.6zM117.6 448.5h.6v10h-.6z"/><path class="st1" d="M-107.4 448h225.5v1h-225.5zM-113.6 368.3h1v75h-1zM115.1 412.5c0-1.5-2.9-3-4.2-3.6.1-2.2.5-13.9-3.1-16.3l-.1-.1-36.4-3.4c-1.8-1.2-20.5-13.6-27.9-16-10.4-3.5-34.4-4.4-45-1.6-8.9 2.3-31 17.4-33.1 18.9-2.8 0-34.4.3-41.9 3.8-.8.1-8.6 1.5-14.3 3.2-9.1 2.8-13.7 7.5-13.8 7.7-.2.1-4.6 3.4-4.7 7.5-.1 2.4 1.7 6.8 3.6 11.1 1.8 3.6 4.6 6.5 8.2 8.2l4.8 2.3 41.2-.4h97.4l40.9.4c3.4-1 6.5-1.7 9.3-2.4 13.9-3.4 19.6-4.8 19.1-19.3z"/><circle class="st1" cx="-73.3" cy="423.7" r="20.4"/><circle class="st1" cx="65.9" cy="423.7" r="20.4"/><circle class="st2" cx="-73.3" cy="423.7" r="13.2"/><circle class="st2" cx="65.9" cy="423.7" r="13.2"/><path class="st3" d="M65.9 437.1c-7.4 0-13.4-6-13.4-13.4s6-13.4 13.4-13.4 13.4 6 13.4 13.4-6 13.4-13.4 13.4zm0-26.4c-7.2 0-13 5.8-13 13s5.8 13 13 13 13-5.8 13-13-5.8-13-13-13z"/><path class="st2" d="M110.2 409.7l-.3-.1v-.3c.2-3.7.2-13.6-2.6-15.7l-36.4-3.4-.1-.1c-.2-.1-20.3-13.5-27.8-15.9-10.3-3.5-33.9-4.3-44.4-1.6-9 2.4-32.7 18.7-32.9 18.8l-.1.1h-.2c-.3 0-34.4.2-41.7 3.8h-.1c-.1 0-8.3 1.4-14.2 3.2-8.9 2.7-13.4 7.4-13.5 7.5-.1.1-4.3 3.2-4.4 6.8-.1 2.5 2.4 8 3.6 10.7 1.7 3.4 4.3 6.1 7.8 7.8l3.2 1.5c-.3-3.3-.6-14.6 5.6-21.4 3.2-3.6 7.8-5.4 13.5-5.3 22.4.4 24.1 23.3 24.3 27h95.2c-.4-2.7-1.4-13.5 4.7-20.7 3.6-4.2 9-6.3 16-6.3h.8c6.8.2 12.1 2.2 15.6 6 5.8 6.3 5.4 15.8 5.2 19.9 0 .5-.1 1.1 0 1.4 3.3-.9 6.2-1.6 8.8-2.3 13.7-3.3 18.8-4.6 18.3-18.3 0-.9-2-2.2-3.9-3.1z"/><path class="st4" d="M114.3 412.9c0-1.3-4.2-3.5-4.2-3.5s0-.4.1-1.3c0 .4-.4.6-.9.9-1.5.8-5.6.7-5.6.7-1.3 0-2.7-.7-3.5-1.7l-12.9.3-11.4.3 11.4-.3-11.9.3c14.8 6.1 10.5 24.8 11.5 24.5 20.6-5 27.6-4.7 27.4-20.2zm-15 4.5c0 .6-.5 1-1 1l-6.9-.2c-.6 0-1-.5-1-1v-.5c0-.6.5-1 1-1l6.9.2c.6 0 1 .5 1 1v.5z"/><path class="st4" d="M110.3 408.4l-.2-7.6c0-1.6-6.5-.9-6.5-.9-1.9.3-3.7 1.9-3.7 3.8l-.1 2.2c-.1 2.2 2.1 4 4.3 4 0-.1 6.2 0 6.2-1.5zM49.8 390.9c-2.5.1-4.7-1.6-5.3-4.1l-2.2-9.8c-.2-.7.1-1.4.6-1.9l1.2-1-.9-.3c-10.6-3.5-34.4-4.2-44.7-1.6-.5.1-1 .3-1.5.5l-.7.2h-.1c.8.7 1.4 1.7.5 2.3 0 0-25.8 17.3-28.6 18.4 1.1.4 2.7.8 4.9 1.1 0 0 19.7-16.2 27.7-18.5 6.1-1.7 22.4 0 29.5.9 1.9.2 3.2 1.9 3 3.8l-1.2 14c21-.9 37.6-2.5 39.3-5.1 0 0-.9-.6-2.3-1.5-1.7 1.8-12.9 2.4-19.2 2.6z"/><path class="st1" d="M71.6 389.4s-.9-.6-2.3-1.5l-.3-.2-.3.3c-1.1 1.2-8.2 2.1-18.9 2.4-2.3.1-4.2-1.4-4.8-3.7l-2.2-9.8c-.1-.5 0-1 .4-1.4l1.9-1.6-1.8-.6C33 369.9 9 369-1.6 371.7c-.5.1-1.1.3-1.5.5l-.7.2h-1.3l1 .9c.5.4.8.9.8 1.2 0 .1 0 .2-.2.3-.3.2-25.1 16.8-28.4 18.3-1.7-.7-2.1-1.5-2.1-1.8h-.3v-.1h-.4l-.3-.1v.1c-4.9.1-34.4.5-41.2 3.8 0 0-8.3 1.4-14.3 3.2-3.2 1-5.8 2.2-7.9 3.3-.9-.1-1.7.3-1.7.4l.4.8c.1-.1.9-.4 1.7-.1.5.2.8.7 1 1.5.4 1.7-.6 3.5-1.5 3.9-2.1 1.1-5.3 2.1-6 1.3-1-1.2.1-3.1 1-3.9l-.6-.7c-1.5 1.4-2.4 3.6-1.2 5.2.4.5 1 .7 1.7.7 2.2 0 5.5-1.7 5.5-1.7.3-.1.7-.4 1-.8h14.9c2.1-.8 4.6-1.3 7.5-1.2 24 .4 23.8 27 23.8 27h19.7v-5.7c1.9 0 11 .1 21.2.1 12.8 0 27.2-.1 31.4-.6 11.7-1.3 13.7-14.3 14-19.8.3-4.8-.4-10.4-1.8-12.6 14.5-.6 29.7-1.8 35.6-3.8 2-.7 2.4-1.2 2.6-1.5l.3-.4-.5-.2zm-68.3 5.8c-1.9 0-3.8 0-5.7.1-8.1.1-15.7.2-23.6-.8 3.6-2.9 19.8-15.8 26.8-17.8 5.1-1.4 18.5-.5 29.3.9 1.6.2 2.7 1.6 2.6 3.3l-1.2 13.7c-8.4.3-17.9.5-28.2.6zM-3 375.6c.5-.3.6-.8.7-1.1 0-.5-.2-1-.5-1.4.5-.2 1-.4 1.4-.5 10.5-2.6 34.2-1.8 44.4 1.6l-.5.5c-.7.7-1 1.6-.7 2.4l2.2 9.8c.7 2.7 3.1 4.6 5.8 4.5 10.8-.3 17.3-1.2 19.2-2.5.6.4 1.1.7 1.5 1-1.7 1.3-9.4 3.2-38 4.5l1.2-13.4c.2-2.2-1.3-4.1-3.4-4.3-3.7-.5-13.7-1.6-21.5-1.6-3.3 0-6.2.2-8.2.7-7.7 2.2-25.6 16.8-27.7 18.5-1.3-.2-2.5-.4-3.4-.7 5.6-3.3 26.5-17.4 27.5-18zm-45.1 36.3c-1 0-1.8-.9-1.8-1.9s.9-1.8 1.9-1.8 1.8.9 1.8 1.9-.9 1.8-1.9 1.8zm82.4-3.9c-.3 5.2-2.1 17.6-13.1 18.8-7.7.9-52.3.5-52.7.5-2.3 0-4.3-1.7-4.6-3.9l-1.1-17.2c.2-6.8 3.2-10.5 8.9-11.1.5.1.9.2 1.5.2 5.6.8 11 1 16.5 1 2.6 0 5.3 0 8-.1 1.9 0 3.7-.1 5.7-.1 4.5 0 16.3-.2 29-.7.9.8 2.3 5.9 1.9 12.6z"/><path class="st1" d="M-97.3 413.8l-4.6-.1c-1 0-1.8.7-1.8 1.7v.2c0 1 .7 1.8 1.7 1.8l4.6.1c.9 0 1.7-.7 1.8-1.7v-.2c0-1-.7-1.8-1.7-1.8zm-.1 2.7l-4.6-.1c-.4 0-.7-.4-.7-.8v-.2c0-.4.4-.7.8-.7l4.6.1c.4 0 .7.4.7.8v.1c-.1.5-.5.8-.8.8zM110.6 400.8c0-.3-.1-.6-.4-.8-1.2-1.1-5.8-.7-6.7-.6-2 .3-4.1 2-4.1 4.3l-.1 2.2c0 .6.1 1.1.3 1.6l-26.1.6 2.2.9h.1l3.3-.1 21.1-.5.3.3c.9 1 2.3 1.6 3.6 1.6h.7c3.6-.2 6-.6 6-1.9l-.2-7.6zm-5.8 8.5c-.3 0-.5 0-.7.1-1.1 0-2.1-.5-2.9-1.3 0 0 0-.1-.1-.1l-.4-.6c-.3-.5-.4-1-.4-1.6l.1-2.2c0-1.7 1.7-3.1 3.3-3.3.8-.1 1.8-.1 2.7-.1 1.5 0 2.8.1 3.3.6l.2 7.6c-.1.1-.3.7-5.1.9zM91.4 418.8l6.9.2c.8 0 1.5-.7 1.5-1.5v-.5c0-.8-.7-1.5-1.5-1.5l-6.9-.2c-.8 0-1.5.7-1.5 1.5v.5c0 .8.7 1.5 1.5 1.5zm-.5-2c0-.3.3-.5.5-.5l6.9.2c.3 0 .5.3.5.5v.5c0 .3-.3.5-.5.5l-6.9-.2c-.3 0-.5-.3-.5-.5v-.5z"/></svg>