<svg id="Layer_1" xmlns="http://www.w3.org/2000/svg" viewBox="-212 310.4 186 173.6"><style>.st0{fill:#252525}.st1{fill:#ea2534}.st2{fill:#FFF}.st3{fill:#010101}.st4{fill:none}</style><circle class="st0" cx="-159.1" cy="448.3" r="12.1"/><path class="st0" d="M-64 391.5s-.1 0 0 0h-8.2c-2-8.1-9.2-16.5-16.4-21.8 0-1.8.1-3.8.1-5.7 0-12.3-1.1-22.3-2.5-22.3-.1 0-13.3 4.2-19.1 17.9-5.5-1.4-11.3-2.2-17.3-2.2-28.6 0-52.3 16.9-56.6 38.8 0 0-.4 3.4-.3 3.4l2.4-.3.7-2.6c2-10 8.4-19.2 18-25.9 9.9-6.9 22.6-10.7 35.8-10.7 5.6 0 11.3.7 16.7 2l2.4.6.9-2.2c3.8-9.1 11.3-13.6 15-15.4.6 3.1 1.1 9.6 1.1 18.6 0 2.2 0 4-.1 5.7v1.5l1.2.9c7.6 5.7 13.6 13.6 15.3 20.3l.5 2.2h9.2c.8 1.4 2 5.3 2.1 9.8 0 4.6-.8 8.3-1.5 9.7h-8.3l-.7 1.7c-.1.3-.2.6-.4.9-3.6 8.3-13.3 30.4-53.4 30.4-22 0-34.9-8.4-41.9-15.4-7.8-7.9-12.5-18.3-12.5-27.9l-.1-4-2.4.3-.2.6c-.1 0-.2 2.8-.2 2.8v.3c0 18.2 16.5 46.1 57.3 46.1 43.6 0 53.1-25.6 56.4-33H-63.3c1.8-.4 3.1-6.7 3.1-12.5-.1-5.9-2.1-12.2-3.8-12.6z"/><path class="st0" d="M-92.6 381.8c2.3 0 4.3 1.9 4.3 4.3 0 2.3-1.9 4.3-4.3 4.3-2.3 0-4.3-1.9-4.3-4.3s1.9-4.3 4.3-4.3m0-2.9c-3.9 0-7.1 3.2-7.1 7.1 0 3.9 3.2 7.1 7.1 7.1s7.1-3.2 7.1-7.1c0-3.9-3.2-7.1-7.1-7.1z"/><path class="st1" d="M-127.7 440.5c-16.3 0-29.4-4.6-38.9-13.7l2-2c9 8.6 21.4 13 36.9 13 17.6 0 30.9-4.5 39.5-13.4l2 2c-9.2 9.2-23.2 14.1-41.5 14.1z"/><path class="st2" d="M-159.1 458.1c-5.4 0-9.8-4.3-9.8-9.8 0-5.5 4.3-9.8 9.8-9.8 5.5 0 9.8 4.3 9.8 9.8s-4.4 9.8-9.8 9.8z"/><path class="st0" d="M-152.5 441.8c-3.6-3.6-9.4-3.6-13 0-3.6 3.6-3.6 9.4 0 13 3.6 3.6 9.4 3.6 13 0 3.5-3.7 3.5-9.5 0-13zm-8.5 8.5c-1.1-1.1-1.1-2.9 0-4.1 1.1-1.1 2.9-1.1 4.1 0 1.1 1.1 1.1 2.9 0 4.1-1.2 1-3 1-4.1 0zm10.7-2c0 1.1-.2 2.2-.6 3.3-.1.2-.1.3-.2.5h-1.3l-2.7-3.1c.1-.4.1-.9 0-1.3l2.7-3.1h1.3c.1.2.1.3.2.5.4.8.6 1.9.6 3.2zm-8.7-8.8c1.1 0 2.2.2 3.3.6.2.1.3.1.5.2v1.3l-3.1 2.7c-.4-.1-.9-.1-1.3 0l-3.1-2.7v-1.3c.2-.1.3-.1.5-.2.9-.3 2-.6 3.2-.6zm-8.7 8.8c0-1.1.2-2.2.6-3.3.1-.2.1-.3.2-.5h1.3l2.7 3.1c-.1.4-.1.9 0 1.3l-2.7 3.1h-1.3c-.1-.1-.1-.3-.2-.5-.4-1.1-.6-2.2-.6-3.2zm8.7 8.6c-1.1 0-2.2-.2-3.3-.6-.2-.1-.3-.1-.5-.2v-1.3l3.1-2.7c.4.1.9.1 1.4 0l3.1 2.7v1.3c-.2.1-.3.1-.5.2-1.1.3-2.2.6-3.3.6z"/><circle class="st2" cx="-128.9" cy="352.4" r="12.2"/><path class="st0" d="M-128.9 365.9c-7.5 0-13.6-6.1-13.6-13.6s6.1-13.6 13.6-13.6 13.6 6.2 13.6 13.7-6.1 13.5-13.6 13.5zm0-24.3c-5.9 0-10.7 4.8-10.7 10.7 0 5.9 4.8 10.7 10.7 10.7 5.9 0 10.8-4.7 10.8-10.6s-4.8-10.8-10.8-10.8z"/><path class="st3" d="M-127.6 358.3v.8c0 .4-.3.7-.7.7h-.9c-.4 0-.7-.3-.7-.7v-.8c-1.8-.3-3.2-1.2-3.8-2.5-.2-.4 0-.8.3-1l.9-.5c.2-.1.4-.1.6 0 .2.1.3.2.4.4.4.9 1.8 1.2 2.8 1.2.6 0 2.4-.1 2.4-1.2 0-.7-.9-1-2.6-1.3-1.7-.3-4.4-.7-4.5-3.4 0-2.1 1.8-3.2 3.5-3.5v-.8c0-.4.3-.7.7-.7h1c.4 0 .7.3.7.7v.8c1.5.3 2.6 1 3.2 2.1.2.4 0 .8-.3 1l-.8.5c-.4.2-.8 0-1-.3-.4-.7-1.4-1-2.3-1-.9 0-1.7.2-2 .6-.3.1-.3.3-.3.5 0 .5.4.7 2.4 1.1 1.9.3 4.7.8 4.7 3.7 0 2.1-1.7 3.3-3.7 3.6z"/><g><path class="st0" d="M-114.2 367.9c-9.6-2.1-19.8-2.1-29.3-.1l-.6-2.8c9.9-2.1 20.5-2.1 30.5.1l-.6 2.8z"/></g><g><path class="st4" d="M-189.4 391.5c-.1-.1-.1-.1-.2-.1l-.2-.1h-.1c-.2-.1-.4-.1-.5-.1h-.1c-.6 0-1.2.3-1.5.7-.5.5-.7 1.2-.7 1.8 0 .6.2 1.2.5 1.5.1.1.5.4.8.6.4.2.7.4 1.1.5.5.2 1.2.3 1.8.4.3-.7.5-1.5.5-2.2.1-1-.1-1.9-.5-2.4-.4-.3-.6-.4-.9-.6z"/><path class="st0" d="M-184.8 396.8c-.4 0-.7.1-1.1.1h-.4c.3-.6.5-1.2.7-1.9.1-.7.2-1.4.2-2.2s-.2-1.6-.6-2.3c-.4-.8-1-1.4-1.7-1.9-.2-.1-.3-.2-.5-.4l-.2-.1-.3-.2c-.4-.1-.7-.3-1.2-.4-.4-.1-.9-.2-1.3-.2-1.3 0-2.6.4-3.7 1.2-1.4 1-2.3 2.5-2.7 4.2-.4 1.7-.1 3.7.9 5.3.6.9 1.1 1.4 1.7 1.9s1.3 1 2 1.3c.3.2.6.3.9.5-.3.3-.6.6-1 .9-1.8 1.5-3.8 2.6-6.1 3.2 2.4-.3 4.7-1.1 6.8-2.4.6-.4 1.2-.8 1.8-1.3.6.2 1.2.4 1.8.5 1.3.3 2.6.5 4 .7h3v-2.5c0-.8.1-1.5.2-2.2l.3-1.7c.1-.3.2-.7.2-1l-3 .5-.7.4zm-3.4-2.3c-.1.7-.3 1.5-.5 2.2-.6-.1-1.2-.2-1.8-.4-.4-.1-.7-.3-1.1-.5-.3-.2-.7-.5-.8-.6-.3-.3-.6-.8-.5-1.5 0-.6.2-1.3.7-1.8.4-.4.9-.7 1.5-.7h.1c.2 0 .3 0 .5.1h.1l.2.1c.1 0 .1 0 .2.1.3.2.6.3.8.6.6.5.8 1.4.6 2.4z"/></g><g><circle class="st0" cx="-96" cy="448.3" r="12.1"/><path class="st2" d="M-96 458.1c-5.4 0-9.8-4.3-9.8-9.8 0-5.5 4.3-9.8 9.8-9.8 5.5 0 9.8 4.3 9.8 9.8s-4.4 9.8-9.8 9.8z"/><path class="st0" d="M-89.5 441.8c-3.6-3.6-9.4-3.6-13 0s-3.6 9.4 0 13 9.4 3.6 13 0c3.5-3.7 3.5-9.5 0-13zm-8.5 8.5c-1.1-1.1-1.1-2.9 0-4.1 1.1-1.1 2.9-1.1 4.1 0 1.1 1.1 1.1 2.9 0 4.1-1.2 1-3 1-4.1 0zm10.7-2c0 1.1-.2 2.2-.6 3.3-.1.2-.1.3-.2.5h-1.3l-2.7-3.1c.1-.4.1-.9 0-1.3l2.7-3.1h1.3c.1.2.1.3.2.5.4.8.6 1.9.6 3.2zm-8.7-8.8c1.1 0 2.2.2 3.3.6.2.1.3.1.5.2v1.3l-3.1 2.7c-.4-.1-.9-.1-1.3 0l-3.1-2.7v-1.3c.2-.1.3-.1.5-.2.9-.3 2-.6 3.2-.6zm-8.7 8.8c0-1.1.2-2.2.6-3.3.1-.2.1-.3.2-.5h1.3l2.7 3.1c-.1.4-.1.9 0 1.3l-2.7 3.1h-1.3c-.1-.1-.1-.3-.2-.5-.4-1.1-.6-2.2-.6-3.2zm8.7 8.6c-1.1 0-2.2-.2-3.3-.6-.2-.1-.3-.1-.5-.2v-1.3l3.1-2.7c.4.1.9.1 1.4 0l3.1 2.7v1.3c-.2.1-.3.1-.5.2-1.1.3-2.2.6-3.3.6z"/></g></svg>