<svg id="Layer_1" xmlns="http://www.w3.org/2000/svg" viewBox="-316.1 383.4 27.1 27.8"><style>.st0{fill:#FFF}</style><path class="st0" d="M-301.8 399.9c0 3.8-3.1 6.9-6.9 6.9h-.9c-.5 0-.9-.4-.9-.9v-1.7c0-.5.4-.9.9-.9h.9c1.9 0 3.4-1.5 3.4-3.4v-.4c0-.7-.6-1.3-1.3-1.3h-3c-1.4 0-2.6-1.2-2.6-2.6v-5.1c0-1.4 1.2-2.6 2.6-2.6h5.1c1.4 0 2.6 1.2 2.6 2.6l.1 9.4zm12 0c0 3.8-3.1 6.9-6.9 6.9h-.9c-.5 0-.9-.4-.9-.9v-1.7c0-.5.4-.9.9-.9h.9c1.9 0 3.4-1.5 3.4-3.4v-.4c0-.7-.6-1.3-1.3-1.3h-3c-1.4 0-2.6-1.2-2.6-2.6v-5.1c0-1.4 1.2-2.6 2.6-2.6h5.1c1.4 0 2.6 1.2 2.6 2.6l.1 9.4z"/></svg>