<svg id="Layer_1" xmlns="http://www.w3.org/2000/svg" viewBox="0 0 113.5 15.8"><style>.st0{fill:#FFF}.st1{fill:#ec1d32}</style><path class="st0" d="M7.2 7.4H2.8v4.9H0V.2h8.1v2.2H2.8v2.9h4.4v2.1zM12.5 12.3H9.7V.2h2.8v12.1zM24.6 12.3h-2.8l-4.4-7.6v7.6h-2.8V.2h2.8l4.4 7.6V.2h2.8v12.1zM26.6 12.3V.2H31c1.4 0 2.6.5 3.6 1.4 1 .9 1.4 2.1 1.4 3.6v2.2c0 1.5-.5 2.6-1.4 3.6s-2.1 1.4-3.6 1.4h-4.4zm2.8-10v7.8H31c.6 0 1.2-.3 1.6-.8.4-.5.6-1.2.6-2V5.1c0-.8-.2-1.5-.6-2-.4-.5-.9-.8-1.6-.8h-1.6zM41.7 5.5L44.2.2h3L43.1 8v4.3h-2.8V7.9l-4-7.7h3l2.4 5.3zM58 7.3c0 1.5-.5 2.7-1.4 3.7-.9 1-2.2 1.4-3.7 1.4s-2.8-.5-3.7-1.4c-1-1-1.4-2.2-1.4-3.7V5.1c0-1.5.5-2.7 1.4-3.7.9-1 2.2-1.5 3.7-1.5s2.8.5 3.7 1.5S58 3.6 58 5.1v2.2zm-2.8-2.2c0-.9-.2-1.6-.6-2.1-.4-.6-1-.8-1.7-.8-.8 0-1.3.3-1.7.8-.4.6-.6 1.3-.6 2.1v2.2c0 .9.2 1.6.6 2.1.4.6 1 .8 1.7.8s1.3-.3 1.7-.8.6-1.3.6-2.1V5.1zM69.6.2V8c0 1.4-.5 2.5-1.4 3.3-.9.8-2.1 1.2-3.6 1.2s-2.7-.4-3.6-1.2c-.9-.8-1.4-1.9-1.4-3.3V.2h2.8V8c0 .7.2 1.3.6 1.7s.9.6 1.6.6c.7 0 1.2-.2 1.6-.6.4-.4.6-.9.6-1.7V.2h2.8zM74.2 7.6v4.6h-2.8V.2h4.2c1.4 0 2.5.3 3.3 1s1.2 1.5 1.2 2.7c0 .6-.2 1.2-.5 1.6-.3.4-.8.8-1.5 1.1.7.2 1.3.6 1.6 1.1.3.5.5 1.1.5 1.8v.8c0 .3 0 .7.1 1.1s.3.7.5.9v.2h-2.9c-.2-.2-.4-.5-.4-.9s-.1-.8-.1-1.2v-1c0-.6-.2-1-.5-1.3s-.8-.5-1.3-.5h-1.4zm0-2.1h1.4c.6 0 1-.1 1.3-.4.3-.3.4-.6.4-1.1 0-.5-.2-.9-.5-1.2-.3-.3-.7-.5-1.3-.5h-1.4v3.2zM91.6 8.2c0 1.4-.4 2.5-1.1 3.2-.8.7-1.9 1.1-3.4 1.1s-2.7-.5-3.6-1.4c-.9-.9-1.4-2.1-1.4-3.6V5c0-1.5.4-2.7 1.3-3.6.9-.9 2-1.4 3.5-1.4s2.7.4 3.6 1.1c.8.7 1.2 1.8 1.2 3.1H89c0-.7-.2-1.3-.5-1.6s-.8-.5-1.6-.5c-.6 0-1.1.3-1.5.8-.3.5-.5 1.2-.5 2v2.5c0 .8.2 1.5.6 2s.9.8 1.6.8c.6 0 1.1-.2 1.4-.5.3-.3.4-.9.4-1.6h2.7zM99.5 9.9h-3.6l-.7 2.3h-3L96.1.1h3l4 12.1h-3l-.6-2.3zm-3-2.1h2.3L97.7 4h-.1l-1.1 3.8zM106.8 7.6v4.6H104V.2h4.2c1.4 0 2.5.3 3.3 1s1.2 1.5 1.2 2.7c0 .6-.2 1.2-.5 1.6s-.8.8-1.5 1.1c.7.2 1.3.6 1.6 1.1.3.5.5 1.1.5 1.8v.8c0 .3 0 .7.1 1.1.1.4.3.7.5.9v.2h-2.9c-.2-.2-.4-.5-.4-.9s-.1-.8-.1-1.2v-1c0-.6-.2-1-.5-1.3s-.8-.5-1.3-.5h-1.4zm0-2.1h1.4c.6 0 1-.1 1.3-.4.3-.3.4-.6.4-1.1 0-.5-.2-.9-.5-1.2-.3-.3-.7-.5-1.3-.5h-1.4v3.2z"/><path class="st1" d="M0 13.8h113.5v2H0z"/></svg>