<svg xmlns="http://www.w3.org/2000/svg" viewBox="0 0 612 792"><path fill="#fff" d="M350.2 405.1h-75.6v26.3h112.3c4 0 7.1 3.1 7.1 7.1V467c0 4-3.1 7.1-7.1 7.1H274.5v42.7c0 4-3.1 7.1-7.1 7.1h-37.2c-4 0-7.1-3.1-7.1-7.1v-42.7h-49.8c-4 0-7.1-3.1-7.1-7.1v-28.5c0-4 3.1-7.1 7.1-7.1h49.8v-26.3h-49.8c-4 0-7.1-3.1-7.1-7.1v-33.1c0-4 3.1-7.1 7.1-7.1h49.8v-140c0-4 3.1-7.1 7.1-7.1h119.9c59.4 0 100.8 40 100.8 97.2s-41.3 97.2-100.7 97.2zm-4.5-147h-71.2v99.7h71.2c31.4 0 52.5-20 52.5-49.8s-21.1-49.9-52.5-49.9z"/></svg>