<svg width="24" height="42" viewBox="0 0 24 42" xmlns="http://www.w3.org/2000/svg"><title>Mouse</title><path d="M.017 20.997c0-3.028-.045-6.068.01-9.097C.14 6.294 3.98 1.548 9.355.305c6.95-1.616 13.812 3.38 14.544 10.6.056.565.09 1.13.09 1.684.01 5.684.02 11.38 0 17.064-.023 4.182-1.688 7.55-4.997 10.024-7.116 5.346-17.508.95-18.83-7.967-.11-.78-.132-1.57-.143-2.36-.022-2.78-.01-5.56 0-8.353-.01 0 0 0 0 0zm1.543.034c0 3.21-.11 6.427.022 9.624.234 5.587 5.25 10.144 10.747 9.917 5.717-.248 10.167-4.94 10.178-10.778.01-5.814.01-11.628 0-17.454C22.498 5.74 16.9.788 10.505 1.684c-4.818.67-8.722 4.862-8.923 9.77-.133 3.185-.022 6.38-.022 9.577zm11.203-6.79c.01.603-.328.626-.744.626-.417 0-.767-.01-.756-.614.01-2.086.01-4.172 0-6.258 0-.603.328-.637.744-.626.416 0 .766.012.755.626-.022 1.03-.01 2.074-.01 3.118 0 1.043-.012 2.086.01 3.13z" fill-opacity=".3" fill="#B5B5B5" fill-rule="evenodd"/></svg>